<svg width="32" height="32" viewBox="0 0 32 32" fill="none" xmlns="http://www.w3.org/2000/svg">
<g clip-path="url(#clip0_222_2)">
<rect width="32" height="32" rx="3" fill="#090808"/>
<path d="M26.9978 4.112L26.8858 5.344C25.8498 5.372 25.4018 5.988 25.4018 7.248V20.66C25.4018 22.816 26.1018 23.88 27.4178 23.908L27.3058 25H19.5498L19.6618 23.712C20.7818 23.712 21.2858 22.788 21.2858 20.912V9.096C19.5218 13.716 17.4778 18.112 15.1258 22.592C12.8298 18.476 10.8418 14.5 8.79777 9.74V21.64C8.79777 24.944 7.62177 27.8 5.26977 30.208L4.68177 29.844C5.88577 27.856 6.47377 25.252 6.47377 22.004V8.032C6.47377 6.492 6.02577 5.596 5.21377 5.372L5.32577 4.112H11.1218C12.7458 8.004 14.3978 11.784 16.2178 14.948C17.7858 12.344 20.2778 7.164 20.2778 6.212C20.2778 5.736 19.6058 5.484 18.7378 5.484L18.8498 4.112H26.9978Z" fill="#F30637"/>
</g>
<defs>
<clipPath id="clip0_222_2">
<rect width="32" height="32" fill="white"/>
</clipPath>
</defs>
</svg>
